<svg width="26" height="26" viewBox="0 0 26 26" fill="none" xmlns="http://www.w3.org/2000/svg">
<path opacity="0.4" d="M15.1667 8.9375C14.477 8.9375 13.8678 8.97242 13.3503 9.08612C12.8235 9.20184 12.3411 9.40996 11.9589 9.79216C11.5767 10.1744 11.3686 10.6567 11.2529 11.1835C11.1392 11.7011 11.1042 12.3102 11.1042 13V22.4792H16.2496V20.5833C16.2496 19.985 16.7347 19.5 17.333 19.5C17.9313 19.5 18.4163 19.985 18.4163 20.5833V22.4792H23.5626V13C23.5626 12.3102 23.5277 11.7011 23.4139 11.1835C23.2982 10.6567 23.0901 10.1744 22.7079 9.79216C22.3257 9.40996 21.8433 9.20184 21.3166 9.08612C20.799 8.97242 20.1899 8.9375 19.5001 8.9375H15.1667Z" fill="#242A5A"/>
<path d="M18.4168 20.5833V22.4792H16.2501V20.5833C16.2501 19.985 16.7351 19.5 17.3335 19.5C17.9318 19.5 18.4168 19.985 18.4168 20.5833Z" fill="#242A5A"/>
<path d="M13.0016 7.49896C13.6927 7.34715 14.4415 7.3125 15.1668 7.3125H16.4126C16.7191 7.3125 16.8723 7.3125 16.9675 7.21731C17.0626 7.12211 17.0626 6.96891 17.0626 6.6625V5.41666C17.0626 4.72687 17.0277 4.11773 16.914 3.60016C16.7983 3.0734 16.5902 2.59103 16.208 2.20883C15.8258 1.82663 15.3434 1.61851 14.8166 1.50279C14.299 1.38908 13.69 1.35416 13.0001 1.35416H6.50012C5.81033 1.35416 5.20119 1.38908 4.68363 1.50279C4.15686 1.6185 3.6745 1.82663 3.29229 2.20883C2.91009 2.59103 2.70197 3.0734 2.58624 3.60016C2.47255 4.11773 2.43762 4.72687 2.43762 5.41666V5.6875H5.41631C5.86505 5.6875 6.22881 6.05127 6.22881 6.5C6.22881 6.94873 5.86505 7.3125 5.41631 7.3125H2.43762V10.0208H5.41631C5.86505 10.0208 6.22881 10.3846 6.22881 10.8333C6.22881 11.282 5.86505 11.6458 5.41631 11.6458H2.43762V14.3542H5.41631C5.86505 14.3542 6.22881 14.7179 6.22881 15.1667C6.22881 15.6154 5.86505 15.9792 5.41631 15.9792H2.43762V22.4792H9.47929V13C9.47929 12.2747 9.51395 11.5259 9.66575 10.8348C9.82354 10.1166 10.1394 9.31364 10.8099 8.64311C11.4804 7.97258 12.2834 7.65675 13.0016 7.49896Z" fill="#242A5A"/>
<path fill-rule="evenodd" clip-rule="evenodd" d="M15.4376 13C15.4376 12.5513 15.8014 12.1875 16.2501 12.1875H18.4168C18.8655 12.1875 19.2293 12.5513 19.2293 13C19.2293 13.4487 18.8655 13.8125 18.4168 13.8125H16.2501C15.8014 13.8125 15.4376 13.4487 15.4376 13ZM15.4376 16.25C15.4376 15.8013 15.8014 15.4375 16.2501 15.4375H18.4168C18.8655 15.4375 19.2293 15.8013 19.2293 16.25C19.2293 16.6987 18.8655 17.0625 18.4168 17.0625H16.2501C15.8014 17.0625 15.4376 16.6987 15.4376 16.25Z" fill="#242A5A"/>
<path d="M2.43758 22.4792C1.83928 22.4792 1.35425 22.9642 1.35425 23.5625C1.35425 24.1608 1.83928 24.6458 2.43758 24.6458H23.5626C24.1609 24.6458 24.6459 24.1608 24.6459 23.5625C24.6459 22.9642 24.1609 22.4792 23.5626 22.4792H2.43758Z" fill="#242A5A"/>
</svg>
