<svg width="24" height="24" viewBox="0 0 24 24" fill="none" xmlns="http://www.w3.org/2000/svg">
<path d="M1.0498 21V18.2C1.0498 17.65 1.19147 17.1333 1.4748 16.65C1.75814 16.1667 2.1498 15.8 2.6498 15.55C3.4998 15.1167 4.45814 14.75 5.52481 14.45C6.59147 14.15 7.76647 14 9.0498 14C10.3331 14 11.5081 14.15 12.5748 14.45C13.6415 14.75 14.5998 15.1167 15.4498 15.55C15.9498 15.8 16.3415 16.1667 16.6248 16.65C16.9081 17.1333 17.0498 17.65 17.0498 18.2V21H1.0498ZM9.0498 13C7.9498 13 7.00814 12.6083 6.2248 11.825C5.44147 11.0417 5.0498 10.1 5.0498 9H4.7998C4.6498 9 4.52914 8.95433 4.4378 8.863C4.34647 8.77167 4.30047 8.65067 4.2998 8.5C4.29914 8.34933 4.34514 8.22833 4.4378 8.137C4.53047 8.04567 4.65114 8 4.7998 8H5.0498C5.0498 7.25 5.23314 6.575 5.5998 5.975C5.96647 5.375 6.4498 4.9 7.0498 4.55V5.5C7.0498 5.65 7.09581 5.771 7.18781 5.863C7.27981 5.955 7.40047 6.00067 7.5498 6C7.69914 5.99933 7.82014 5.95367 7.9128 5.863C8.00547 5.77233 8.05114 5.65133 8.0498 5.5V4.15C8.1998 4.1 8.35814 4.06267 8.5248 4.038C8.69147 4.01333 8.86647 4.00067 9.0498 4C9.23314 3.99933 9.40814 4.012 9.5748 4.038C9.74147 4.064 9.8998 4.10133 10.0498 4.15V5.5C10.0498 5.65 10.0958 5.771 10.1878 5.863C10.2798 5.955 10.4005 6.00067 10.5498 6C10.6991 5.99933 10.8201 5.95367 10.9128 5.863C11.0055 5.77233 11.0511 5.65133 11.0498 5.5V4.55C11.6498 4.9 12.1331 5.375 12.4998 5.975C12.8665 6.575 13.0498 7.25 13.0498 8H13.2998C13.4498 8 13.5708 8.046 13.6628 8.138C13.7548 8.23 13.8005 8.35067 13.7998 8.5C13.7991 8.64933 13.7535 8.77033 13.6628 8.863C13.5721 8.95567 13.4511 9.00133 13.2998 9H13.0498C13.0498 10.1 12.6581 11.0417 11.8748 11.825C11.0915 12.6083 10.1498 13 9.0498 13ZM9.0498 11C9.5998 11 10.0708 10.8043 10.4628 10.413C10.8548 10.0217 11.0505 9.55067 11.0498 9H7.0498C7.0498 9.55 7.2458 10.021 7.6378 10.413C8.0298 10.805 8.50047 11.0007 9.0498 11ZM16.5498 15L16.3998 14.25C16.2998 14.2167 16.2041 14.1793 16.1128 14.138C16.0215 14.0967 15.9338 14.034 15.8498 13.95L15.1498 14.2L14.6498 13.3L15.1998 12.8V12.2L14.6498 11.7L15.1498 10.8L15.8498 11.05C15.9165 10.9833 15.9998 10.925 16.0998 10.875C16.1998 10.825 16.2998 10.7833 16.3998 10.75L16.5498 10H17.5498L17.6998 10.75C17.7998 10.7833 17.8998 10.825 17.9998 10.875C18.0998 10.925 18.1831 10.9833 18.2498 11.05L18.9498 10.8L19.4498 11.7L18.8998 12.2V12.8L19.4498 13.3L18.9498 14.2L18.2498 13.95C18.1665 14.0333 18.0791 14.096 17.9878 14.138C17.8965 14.18 17.8005 14.2173 17.6998 14.25L17.5498 15H16.5498ZM17.0498 13.25C17.2498 13.25 17.4248 13.175 17.5748 13.025C17.7248 12.875 17.7998 12.7 17.7998 12.5C17.7998 12.3 17.7248 12.125 17.5748 11.975C17.4248 11.825 17.2498 11.75 17.0498 11.75C16.8498 11.75 16.6748 11.825 16.5248 11.975C16.3748 12.125 16.2998 12.3 16.2998 12.5C16.2998 12.7 16.3748 12.875 16.5248 13.025C16.6748 13.175 16.8498 13.25 17.0498 13.25ZM18.8498 10L18.6498 8.95C18.4998 8.9 18.3625 8.83767 18.2378 8.763C18.1131 8.68833 18.0005 8.60067 17.8998 8.5L16.8498 8.85L16.1498 7.65L16.9998 6.9C16.9665 6.81667 16.9498 6.75 16.9498 6.7V6.3C16.9498 6.25 16.9665 6.18333 16.9998 6.1L16.1498 5.35L16.8498 4.15L17.8998 4.5C17.9998 4.4 18.1125 4.31233 18.2378 4.237C18.3631 4.16167 18.5005 4.09933 18.6498 4.05L18.8498 3H20.2498L20.4498 4.05C20.5998 4.1 20.7375 4.16267 20.8628 4.238C20.9881 4.31333 21.1005 4.40067 21.1998 4.5L22.2498 4.15L22.9498 5.35L22.0998 6.1C22.1331 6.18333 22.1498 6.25 22.1498 6.3V6.7C22.1498 6.75 22.1331 6.81667 22.0998 6.9L22.9498 7.65L22.2498 8.85L21.1998 8.5C21.0998 8.6 20.9875 8.68767 20.8628 8.763C20.7381 8.83833 20.6005 8.90067 20.4498 8.95L20.2498 10H18.8498ZM19.5498 7.75C19.8998 7.75 20.1958 7.629 20.4378 7.387C20.6798 7.145 20.8005 6.84933 20.7998 6.5C20.7991 6.15067 20.6781 5.85467 20.4368 5.612C20.1955 5.36933 19.8998 5.24867 19.5498 5.25C19.1998 5.25133 18.9038 5.37233 18.6618 5.613C18.4198 5.85367 18.2991 6.14933 18.2998 6.5C18.3005 6.85067 18.4215 7.14667 18.6628 7.388C18.9041 7.62933 19.1998 7.75 19.5498 7.75Z" fill="black"/>
</svg>
