<svg width="26" height="26" viewBox="0 0 26 26" fill="none" xmlns="http://www.w3.org/2000/svg">
<path opacity="0.4" d="M13 1.89584C11.8638 1.89584 10.887 2.34472 9.86638 3.09136C8.876 3.81591 7.76044 4.88562 6.35284 6.23534L6.31488 6.27174L3.52084 8.85278V14.6861C3.52082 16.6771 3.52081 18.254 3.68675 19.4881C3.8575 20.7582 4.2173 21.7863 5.02802 22.597C5.83876 23.4077 6.86678 23.7675 8.13691 23.9383C9.37104 24.1042 10.948 24.1042 12.9388 24.1042H13.0611C15.0521 24.1042 16.629 24.1042 17.8631 23.9383C19.1332 23.7675 20.1613 23.4077 20.972 22.597C21.7827 21.7863 22.1425 20.7582 22.3133 19.4881C22.4792 18.254 22.4792 16.6771 22.4792 14.6862V8.85278L19.6852 6.27177L19.6472 6.23537C18.2396 4.88563 17.124 3.81591 16.1337 3.09137C15.1131 2.34472 14.1362 1.89584 13 1.89584Z" fill="#242A5A"/>
<path fill-rule="evenodd" clip-rule="evenodd" d="M11.6458 18.4167C11.6458 17.6687 12.2499 17.0625 12.9951 17.0625C13.7342 17.0625 14.3542 17.671 14.3542 18.4167C14.3542 19.1623 13.7342 19.7708 12.9951 19.7708C12.2499 19.7708 11.6458 19.1646 11.6458 18.4167Z" fill="#242A5A"/>
<path fill-rule="evenodd" clip-rule="evenodd" d="M10.9858 4.62144C10.1111 5.26133 9.08776 6.23947 7.62154 7.64538L2.91646 12.1569C2.4846 12.571 1.79883 12.5566 1.38474 12.1248C0.970641 11.693 0.985039 11.0071 1.41689 10.5931L6.17827 6.02751C7.57486 4.68832 8.70142 3.60806 9.70646 2.87278C10.7517 2.10809 11.7842 1.625 13 1.625C14.2158 1.625 15.2484 2.10809 16.2936 2.87278C17.2986 3.60807 18.4251 4.68832 19.8218 6.02753L24.5831 10.5931C25.0149 11.0071 25.0293 11.693 24.6153 12.1248C24.2012 12.5566 23.5154 12.571 23.0836 12.1569L18.3784 7.64539C16.9123 6.23947 15.8889 5.26134 15.0143 4.62144C14.1663 4.0011 13.5791 3.79167 13 3.79167C12.421 3.79167 11.8337 4.0011 10.9858 4.62144Z" fill="#242A5A"/>
</svg>
