<svg width="26" height="26" viewBox="0 0 26 26" fill="none" xmlns="http://www.w3.org/2000/svg">
<path opacity="0.4" d="M13 1.89584C11.8638 1.89584 10.887 2.34472 9.86641 3.09136C8.87603 3.81591 7.76047 4.88562 6.35287 6.23534L6.31491 6.27174L3.52087 8.85278V14.6861C3.52085 16.6771 3.52084 18.254 3.68678 19.4881C3.85753 20.7582 4.21733 21.7863 5.02805 22.597C5.83879 23.4077 6.86681 23.7675 8.13694 23.9383C9.37107 24.1042 10.948 24.1042 12.9388 24.1042H13.0611C15.0521 24.1042 16.629 24.1042 17.8631 23.9383C19.1332 23.7675 20.1613 23.4077 20.9721 22.597C21.7827 21.7863 22.1425 20.7582 22.3134 19.4881C22.4792 18.254 22.4792 16.6771 22.4792 14.6862V8.85278L19.6852 6.27177L19.6473 6.23537C18.2396 4.88563 17.1241 3.81591 16.1337 3.09137C15.1131 2.34472 14.1362 1.89584 13 1.89584Z" fill="#242A5A" fill-opacity="0.5"/>
<path fill-rule="evenodd" clip-rule="evenodd" d="M11.6459 18.4167C11.6459 17.6687 12.2499 17.0625 12.9952 17.0625C13.7342 17.0625 14.3542 17.671 14.3542 18.4167C14.3542 19.1623 13.7342 19.7708 12.9952 19.7708C12.2499 19.7708 11.6459 19.1646 11.6459 18.4167Z" fill="#242A5A" fill-opacity="0.5"/>
<path fill-rule="evenodd" clip-rule="evenodd" d="M10.9858 4.62144C10.1111 5.26133 9.08779 6.23947 7.62157 7.64538L2.91649 12.1569C2.48463 12.571 1.79886 12.5566 1.38477 12.1248C0.970671 11.693 0.98507 11.0071 1.41692 10.5931L6.1783 6.02751C7.57489 4.68832 8.70145 3.60806 9.70649 2.87278C10.7517 2.10809 11.7842 1.625 13 1.625C14.2159 1.625 15.2484 2.10809 16.2936 2.87278C17.2986 3.60807 18.4252 4.68832 19.8218 6.02753L24.5831 10.5931C25.015 11.0071 25.0294 11.693 24.6153 12.1248C24.2013 12.5566 23.5154 12.571 23.0836 12.1569L18.3785 7.64539C16.9123 6.23947 15.889 5.26134 15.0143 4.62144C14.1664 4.0011 13.5791 3.79167 13 3.79167C12.421 3.79167 11.8337 4.0011 10.9858 4.62144Z" fill="#242A5A" fill-opacity="0.5"/>
</svg>
