<svg width="45" height="39" viewBox="0 0 45 39" fill="none" xmlns="http://www.w3.org/2000/svg">
<path d="M28.3698 1.71615C28.3698 1.09688 27.868 0.595093 27.2488 0.595093H15.3726C14.7534 0.595093 14.2516 1.09688 14.2516 1.71615V8.84411C14.2516 9.46338 14.7534 9.96517 15.3726 9.96517H26.1277V13.1319L15.3726 23.8905L12.6026 21.1192C12.3677 20.8844 12.0392 20.7662 11.7102 20.7952C11.3794 20.8246 11.0787 20.9992 10.8891 21.2718L0.200567 36.6437C-0.0376945 36.9863 -0.0657956 37.4329 0.127624 37.8029C0.320894 38.173 0.703846 38.4047 1.12118 38.4047H43.876C43.8772 38.4048 43.8783 38.4048 43.8789 38.4047C44.4982 38.4047 45 37.9029 45 37.2836C45 37.0171 44.907 36.7723 44.7517 36.5799L28.3698 13.2419V1.71615ZM16.4937 7.72306V2.8372H26.1277V7.72306H16.4937ZM3.26598 36.1627L11.9646 23.6526L14.5797 26.2689C14.79 26.479 15.0752 26.5973 15.3726 26.5973C15.6699 26.5973 15.9551 26.479 16.1654 26.2689L27.0981 15.3326L41.7193 36.1629H3.26598V36.1627Z" fill="#242A5A"/>
</svg>
