<svg width="26" height="26" viewBox="0 0 26 26" fill="none" xmlns="http://www.w3.org/2000/svg">
<path fill-rule="evenodd" clip-rule="evenodd" d="M11.3749 9.20833C13.0925 9.20833 14.5435 10.3504 15.0096 11.9167H22.4791C23.0774 11.9167 23.5624 12.4017 23.5624 13C23.5624 13.5983 23.0774 14.0833 22.4791 14.0833H15.0096C14.5435 15.6495 13.0925 16.7917 11.3749 16.7917C9.28088 16.7917 7.5833 15.0941 7.5833 13C7.5833 10.9059 9.28088 9.20833 11.3749 9.20833ZM11.3749 11.375C10.4775 11.375 9.74996 12.1026 9.74996 13C9.74996 13.8974 10.4775 14.625 11.3749 14.625C12.2725 14.625 12.9999 13.8974 12.9999 13C12.9999 12.1026 12.2725 11.375 11.3749 11.375Z" fill="#242A5A" fill-opacity="0.5"/>
<path opacity="0.4" d="M22.3885 5.79404C21.7359 5.14197 20.9142 4.8615 19.9383 4.73039C18.9983 4.60412 17.8032 4.60414 16.3204 4.60416H10.7949C9.31046 4.60415 8.13421 4.60415 7.19491 4.69963C6.23253 4.79744 5.4291 5.00217 4.72631 5.47139C4.16399 5.84682 3.68118 6.32925 3.30545 6.89112C2.83586 7.59336 2.63097 8.39616 2.53307 9.35778C2.43751 10.2963 2.43752 11.4716 2.43753 12.9549V13.0451C2.43752 14.5284 2.43751 15.7037 2.53307 16.6423C2.63097 17.6038 2.83585 18.4066 3.30544 19.1089C3.68118 19.6707 4.16399 20.1531 4.72631 20.5286C5.4291 20.9978 6.23253 21.2026 7.19491 21.3004C8.13421 21.3958 9.31044 21.3958 10.7949 21.3958H16.3204C17.8032 21.3958 18.9983 21.3958 19.9383 21.2696C20.9142 21.1385 21.7359 20.8581 22.3884 20.206C23.041 19.5538 23.3217 18.7329 23.453 17.7578C23.5086 17.3446 23.5397 16.8821 23.5571 16.3676C23.5675 16.0602 23.5727 15.9066 23.4768 15.8075C23.381 15.7083 23.2247 15.7083 22.9124 15.7083H16.4526C16.2741 15.7083 16.1848 15.7083 16.1132 15.7464C16.0416 15.7844 15.9872 15.865 15.8783 16.0262C14.905 17.4677 13.2557 18.4167 11.3821 18.4167C8.38821 18.4167 5.96116 15.9915 5.96116 13C5.96116 10.0085 8.38821 7.58333 11.3821 7.58333C13.2557 7.58333 14.905 8.53229 15.8783 9.97385C15.9872 10.135 16.0416 10.2156 16.1132 10.2536C16.1848 10.2917 16.2741 10.2917 16.4526 10.2917H22.9124C23.2247 10.2917 23.381 10.2917 23.4768 10.1926C23.5727 10.0934 23.5675 9.93976 23.5571 9.63239C23.5397 9.11785 23.5086 8.6554 23.453 8.24227C23.3217 7.26715 23.041 6.44612 22.3885 5.79404Z" fill="#242A5A" fill-opacity="0.5"/>
</svg>
