<svg width="51" height="25" viewBox="0 0 51 25" fill="none" xmlns="http://www.w3.org/2000/svg">
<path d="M25.5001 0C11.5063 0 1.03176 10.8049 0.592884 11.265C-0.0670943 11.9562 -0.0670943 13.0441 0.592884 13.7353C1.03176 14.1951 11.5063 25 25.5001 25C39.4939 25 49.9684 14.1951 50.4073 13.735C51.0673 13.0438 51.0673 11.9559 50.4073 11.2647C49.9684 10.8046 39.4939 0 25.5001 0ZM25.4999 19.6861C21.5641 19.6861 18.362 16.4623 18.362 12.5C18.362 8.53774 21.5641 5.31418 25.4999 5.31418C29.4359 5.31418 32.6382 8.53774 32.6382 12.5C32.6382 16.4623 29.4359 19.6861 25.4999 19.6861ZM18.1092 4.71764C16.0631 6.67897 14.7845 9.44149 14.7845 12.5C14.7845 15.5585 16.0629 18.3208 18.1089 20.2824C11.7519 18.3599 6.76525 14.4871 4.5041 12.5C6.76596 10.5124 11.7524 6.63962 18.1092 4.71764ZM32.8913 20.2824C34.9373 18.3208 36.216 15.5585 36.216 12.5C36.216 9.44149 34.9373 6.67897 32.8908 4.71764C39.248 6.63986 44.2352 10.5129 46.4963 12.5C44.2342 14.4876 39.2478 18.3601 32.8913 20.2824Z" fill="#F38607"/>
<path d="M25.5007 8.70564C23.4265 8.70564 21.7388 10.4079 21.7388 12.5C21.7388 14.5918 23.4263 16.2938 25.5007 16.2938C27.5748 16.2938 29.2623 14.5918 29.2623 12.5C29.2623 10.4077 27.5748 8.70564 25.5007 8.70564Z" fill="#F38607"/>
</svg>
