<svg width="41" height="41" viewBox="0 0 41 41" fill="none" xmlns="http://www.w3.org/2000/svg">
<path d="M18.5419 2.875C18.5419 2.35562 18.3355 1.85751 17.9683 1.49025C17.601 1.12299 17.1029 0.916664 16.5835 0.916664H2.8752C2.35582 0.916664 1.85771 1.12299 1.49045 1.49025C1.12319 1.85751 0.91687 2.35562 0.91687 2.875V40.0833H18.5419V2.875ZM14.6252 32.25H4.83354V28.3333H14.6252V32.25ZM14.6252 24.4167H4.83354V20.5H14.6252V24.4167ZM14.6252 16.5833H4.83354V12.6667H14.6252V16.5833ZM14.6252 8.75H4.83354V4.83333H14.6252V8.75ZM38.1252 12.6667H24.4169C23.8975 12.6667 23.3994 12.873 23.0321 13.2402C22.6649 13.6075 22.4585 14.1056 22.4585 14.625V40.0833H40.0835V14.625C40.0835 14.1056 39.8772 13.6075 39.51 13.2402C39.1427 12.873 38.6446 12.6667 38.1252 12.6667ZM30.2919 36.1667H26.3752V32.25H30.2919V36.1667ZM30.2919 28.3333H26.3752V24.4167H30.2919V28.3333ZM30.2919 20.5H26.3752V16.5833H30.2919V20.5ZM36.1669 36.1667H32.2502V32.25H36.1669V36.1667ZM36.1669 28.3333H32.2502V24.4167H36.1669V28.3333ZM36.1669 20.5H32.2502V16.5833H36.1669V20.5Z" fill="#242A5A"/>
</svg>
