<svg width="61" height="61" viewBox="0 0 61 61" fill="none" xmlns="http://www.w3.org/2000/svg">
<rect width="61" height="61" rx="30.5" fill="#242A5A" fill-opacity="0.2"/>
<path d="M28.5419 12.875C28.5419 12.3556 28.3355 11.8575 27.9683 11.4902C27.601 11.123 27.1029 10.9167 26.5835 10.9167H12.8752C12.3558 10.9167 11.8577 11.123 11.4905 11.4902C11.1232 11.8575 10.9169 12.3556 10.9169 12.875V50.0833H28.5419V12.875ZM24.6252 42.25H14.8335V38.3333H24.6252V42.25ZM24.6252 34.4167H14.8335V30.5H24.6252V34.4167ZM24.6252 26.5833H14.8335V22.6667H24.6252V26.5833ZM24.6252 18.75H14.8335V14.8333H24.6252V18.75ZM48.1252 22.6667H34.4169C33.8975 22.6667 33.3994 22.873 33.0321 23.2402C32.6649 23.6075 32.4585 24.1056 32.4585 24.625V50.0833H50.0835V24.625C50.0835 24.1056 49.8772 23.6075 49.51 23.2402C49.1427 22.873 48.6446 22.6667 48.1252 22.6667ZM40.2919 46.1667H36.3752V42.25H40.2919V46.1667ZM40.2919 38.3333H36.3752V34.4167H40.2919V38.3333ZM40.2919 30.5H36.3752V26.5833H40.2919V30.5ZM46.1669 46.1667H42.2502V42.25H46.1669V46.1667ZM46.1669 38.3333H42.2502V34.4167H46.1669V38.3333ZM46.1669 30.5H42.2502V26.5833H46.1669V30.5Z" fill="#242A5A"/>
</svg>
