<svg width="30" height="31" viewBox="0 0 30 31" fill="none" xmlns="http://www.w3.org/2000/svg">
<g clip-path="url(#clip0_6_382)">
<path d="M29.9335 16.903H0.067627V16.9034H29.9335V16.903Z" fill="#C42126"/>
<path d="M28.3768 8.71446H1.62317V8.71491H28.3768V8.71446Z" fill="#C42126"/>
<path d="M29.4396 11.4435H0.559204V11.444H29.4396V11.4435Z" fill="#C42126"/>
<path d="M6.44699 27.8199H23.5533L23.5542 27.8189H6.44604L6.44699 27.8199Z" fill="#C42126"/>
<path d="M14.9999 0.5C14.7052 0.5 14.4129 0.51064 14.1228 0.527234H15.8771C15.5867 0.51064 15.2945 0.5 14.9999 0.5Z" fill="#C42126"/>
<path d="M29.9373 14.1732H0.0618896V14.1737H29.9373V14.1732Z" fill="#C42126"/>
<path d="M19.4333 5.98532H26.5959C25.7452 4.94961 24.7564 4.03278 23.6609 3.25662H18.2825C18.7275 4.03962 19.1103 4.96355 19.4333 5.98532Z" fill="#E7E7E7"/>
<path d="M18.2825 3.25663H23.661C21.4375 1.68093 18.768 0.694186 15.8771 0.527237H15.4153C16.776 0.698493 17.4009 1.70551 18.2825 3.25663Z" fill="#DC3027"/>
<path d="M29.4407 11.4438C29.174 10.4926 28.8163 9.58004 28.3768 8.71509H20.1365C20.3034 9.59119 20.4352 10.5063 20.5327 11.4438H29.4407Z" fill="#E7E7E7"/>
<path d="M19.673 8.71464H28.3765C27.8806 7.7391 27.2847 6.82367 26.5959 5.9855H18.993C19.2611 6.83412 19.4888 7.74955 19.673 8.71464Z" fill="#DC3027"/>
<path d="M20.8483 16.9023H29.9324C29.9755 16.4407 29.9999 15.9729 29.9999 15.5002C29.9999 15.0528 29.9764 14.6111 29.9381 14.1734H20.8504C20.88 15.081 20.8795 15.9952 20.8483 16.9023Z" fill="#E7E7E7"/>
<path d="M29.9383 14.173C29.8561 13.2358 29.6872 12.3239 29.4407 11.4443H20.15C20.2433 12.3379 20.3049 13.2521 20.335 14.173H29.9383Z" fill="#DC3027"/>
<path d="M19.9797 22.3609H28.3375C28.7832 21.4968 29.1465 20.5836 29.4189 19.6317H20.3838C20.2843 20.5706 20.1493 21.4855 19.9797 22.3609Z" fill="#E7E7E7"/>
<path d="M29.4192 19.6315C29.671 18.7521 29.8458 17.8403 29.9327 16.9028H20.5653C20.5333 17.8244 20.4698 18.7384 20.3746 19.6315H29.4192Z" fill="#DC3027"/>
<path d="M23.5541 27.8189C24.6654 27.0459 25.6682 26.1281 26.5324 25.0902H19.4947C19.1657 26.1163 18.7751 27.0387 18.322 27.8189H23.5541Z" fill="#E7E7E7"/>
<path d="M19.2299 25.0901H26.5324C27.2292 24.2528 27.8341 23.3374 28.3374 22.3609H19.9184C19.7315 23.3267 19.5016 24.2426 19.2299 25.0901Z" fill="#DC3027"/>
<path d="M14.4563 30.4894C14.426 30.4884 14.3957 30.487 14.3654 30.4861C14.3957 30.487 14.426 30.4884 14.4563 30.4894Z" fill="#DC3027"/>
<path d="M14.9999 30.5C18.18 30.5 21.1265 29.5074 23.5532 27.8199H18.1245C17.161 29.4799 16.5253 30.5 14.9999 30.5Z" fill="#DC3027"/>
<path d="M15 30.5C14.8178 30.5 14.6369 30.4958 14.4564 30.4894C14.6388 30.4955 14.8199 30.5 15 30.5Z" fill="#C42126"/>
<path d="M18.7792 3.25662H6.33928C5.24366 4.03278 4.25508 4.94955 3.40405 5.98532H19.9298C19.6067 4.96355 19.2243 4.03962 18.7792 3.25662Z" fill="#F3F4F5"/>
<path d="M6.33923 3.25663H18.7792C17.8974 1.70551 16.776 0.698493 15.4153 0.527237H14.1228C11.2319 0.694186 8.56246 1.68093 6.33923 3.25663Z" fill="#E73625"/>
<path d="M0.55957 11.4438H21.0058C20.9082 10.5061 20.7765 9.59119 20.6096 8.71509H1.62346C1.18386 9.58011 0.826271 10.4926 0.55957 11.4438Z" fill="#F3F4F5"/>
<path d="M3.40398 5.98532C2.71573 6.82349 2.11937 7.73886 1.62366 8.71446H20.6095C20.4255 7.74956 20.1979 6.83419 19.9297 5.98532H3.40398Z" fill="#E73625"/>
<path d="M0.00012207 15.5002C0.00012207 15.973 0.0247591 16.4407 0.0676364 16.9023H21.1891C21.2203 15.9952 21.2208 15.0812 21.1912 14.1736H0.0619363C0.0235558 14.6111 0.00012207 15.0528 0.00012207 15.5002Z" fill="#F3F4F5"/>
<path d="M0.0618896 14.173H21.1909C21.1608 13.2519 21.099 12.3379 21.0059 11.4443H0.559254C0.312694 12.3241 0.143844 13.2358 0.0618896 14.173Z" fill="#E73625"/>
<path d="M20.9984 19.6315H0.581055C0.853455 20.5836 1.21699 21.4966 1.66249 22.3607H20.5943C20.7639 21.4855 20.8986 20.5706 20.9984 19.6315Z" fill="#F3F4F5"/>
<path d="M0.581078 19.6315H20.9984C21.0934 18.7384 21.1571 17.8242 21.189 16.9028H0.067627C0.154522 17.8405 0.329578 18.7521 0.581078 19.6315Z" fill="#E73625"/>
<path d="M6.44607 27.8189H18.7335C19.1866 27.0385 19.5774 26.1163 19.9061 25.0902H3.46777C4.33203 26.1281 5.33455 27.0459 6.44607 27.8189Z" fill="#F3F4F5"/>
<path d="M1.66272 22.3608C2.16604 23.3373 2.77088 24.2528 3.46768 25.09H19.906C20.1775 24.2426 20.4075 23.3267 20.5943 22.3608H1.66272Z" fill="#E73625"/>
<path d="M14.3653 30.486C14.3956 30.4869 14.4259 30.4883 14.4562 30.4893C14.6367 30.4957 14.8177 30.4999 14.9998 30.4999C16.5253 30.4999 17.7692 29.4799 18.7329 27.8198H6.4469C8.71091 29.3944 11.4285 30.3636 14.3653 30.486Z" fill="#E73625"/>
<path d="M14.6898 0.507797C7.00313 0.66417 0.7381 6.59916 0.0638428 14.1486H14.6901V0.507797H14.6898Z" fill="#283991"/>
<path d="M3.00142 8.99864L3.22993 9.70229H3.97031L3.37136 10.1374L3.60012 10.8415L3.00142 10.4062L2.40291 10.8415L2.63123 10.1374L2.03247 9.70229H2.77285L3.00142 8.99864Z" fill="#EFEFEF"/>
<path d="M3.00142 11.4846L3.22993 12.1887H3.97031L3.37136 12.6238L3.60012 13.3279L3.00142 12.8926L2.40291 13.3279L2.63123 12.6238L2.03247 12.1887H2.77285L3.00142 11.4846Z" fill="#EFEFEF"/>
<path d="M5.48788 5.26881L5.71646 5.97271H6.45658L5.85782 6.40807L6.08639 7.11172L5.48788 6.67686L4.88912 7.11172L5.11769 6.40807L4.51868 5.97271H5.25905L5.48788 5.26881Z" fill="#EFEFEF"/>
<path d="M5.48788 7.7552L5.71646 8.4591H6.45658L5.85782 8.89395L6.08639 9.5981L5.48788 9.16325L4.88912 9.5981L5.11769 8.89395L4.51868 8.4591H5.25905L5.48788 7.7552Z" fill="#EFEFEF"/>
<path d="M5.48788 10.2416L5.71646 10.9457H6.45658L5.85782 11.3803L6.08639 12.0845L5.48788 11.6492L4.88912 12.0845L5.11769 11.3803L4.51868 10.9457H5.25905L5.48788 10.2416Z" fill="#EFEFEF"/>
<path d="M1.11378 12.0845L0.885015 11.3803L1.48378 10.9455H0.743843L0.72725 10.8941C0.645992 11.1454 0.572587 11.3998 0.504883 11.657L0.515333 11.6492L1.11378 12.0845Z" fill="#EFEFEF"/>
<path d="M2.40289 8.35516L3.0014 7.91986L3.60016 8.35516L3.3714 7.65101L3.97016 7.21571H3.22978L3.00121 6.51207L2.77264 7.21571H2.49979C2.44912 7.29247 2.4001 7.36968 2.35083 7.44758L2.63127 7.65101L2.40289 8.35516Z" fill="#EFEFEF"/>
<path d="M5.48782 4.19049L6.08633 4.62535L5.85775 3.9217L6.45626 3.4864H6.02876C5.66566 3.75786 5.31536 4.04514 4.9788 4.34826L4.88855 4.62535L5.48782 4.19049Z" fill="#EFEFEF"/>
<path d="M7.37549 3.3824L7.97425 2.94711L8.57276 3.3824L8.34419 2.67825L8.9427 2.2434H8.20257L8.17154 2.14865C7.92073 2.27678 7.67253 2.4101 7.42996 2.55196L7.60381 2.67819L7.37549 3.3824Z" fill="#EFEFEF"/>
<path d="M7.97427 4.02588L8.20284 4.72933H8.94297L8.3442 5.16463L8.57278 5.86878L7.97427 5.43342L7.37551 5.86878L7.60408 5.16463L7.00513 4.72933H7.74544L7.97427 4.02588Z" fill="#EFEFEF"/>
<path d="M7.97427 6.51227L8.20284 7.21572H8.94297L8.3442 7.65102L8.57278 8.35517L7.97427 7.91981L7.37551 8.35517L7.60408 7.65102L7.00513 7.21572H7.74544L7.97427 6.51227Z" fill="#EFEFEF"/>
<path d="M7.97427 8.99864L8.20284 9.70229H8.94297L8.3442 10.1374L8.57278 10.8415L7.97427 10.4062L7.37551 10.8415L7.60408 10.1374L7.00513 9.70229H7.74544L7.97427 8.99864Z" fill="#EFEFEF"/>
<path d="M7.97427 11.4846L8.20284 12.1887H8.94297L8.3442 12.6238L8.57278 13.3279L7.97427 12.8926L7.37551 13.3279L7.60408 12.6238L7.00513 12.1887H7.74544L7.97427 11.4846Z" fill="#EFEFEF"/>
<path d="M10.4606 2.78244L10.6892 3.48634H11.4293L10.8308 3.9217L11.0591 4.62534L10.4606 4.19049L9.86164 4.62534L10.0904 3.9217L9.49146 3.48634H10.2318L10.4606 2.78244Z" fill="#EFEFEF"/>
<path d="M10.4606 5.26881L10.6892 5.97271H11.4293L10.8308 6.40807L11.0591 7.11172L10.4606 6.67686L9.86164 7.11172L10.0904 6.40807L9.49146 5.97271H10.2318L10.4606 5.26881Z" fill="#EFEFEF"/>
<path d="M10.4606 7.7552L10.6892 8.4591H11.4293L10.8308 8.89395L11.0591 9.5981L10.4606 9.16325L9.86164 9.5981L10.0904 8.89395L9.49146 8.4591H10.2318L10.4606 7.7552Z" fill="#EFEFEF"/>
<path d="M10.4606 10.2416L10.6892 10.9457H11.4293L10.8308 11.3803L11.0591 12.0845L10.4606 11.6492L9.86164 12.0845L10.0904 11.3803L9.49146 10.9457H10.2318L10.4606 10.2416Z" fill="#EFEFEF"/>
<path d="M12.9469 1.53951L13.1755 2.2434H13.9156L13.3169 2.67826L13.5454 3.38241L12.9469 2.94705L12.348 3.38241L12.5767 2.67826L11.9778 2.2434H12.7179L12.9469 1.53951Z" fill="#EFEFEF"/>
<path d="M12.9469 4.02588L13.1755 4.72933H13.9156L13.3169 5.16463L13.5454 5.86878L12.9469 5.43342L12.348 5.86878L12.5767 5.16463L11.9778 4.72933H12.7179L12.9469 4.02588Z" fill="#EFEFEF"/>
<path d="M12.9469 6.51227L13.1755 7.21572H13.9156L13.3169 7.65102L13.5454 8.35517L12.9469 7.91981L12.348 8.35517L12.5767 7.65102L11.9778 7.21572H12.7179L12.9469 6.51227Z" fill="#EFEFEF"/>
<path d="M12.9469 8.99864L13.1755 9.70229H13.9156L13.3169 10.1374L13.5454 10.8415L12.9469 10.4062L12.348 10.8415L12.5767 10.1374L11.9778 9.70229H12.7179L12.9469 8.99864Z" fill="#EFEFEF"/>
<path d="M12.9469 11.4846L13.1755 12.1887H13.9156L13.3169 12.6238L13.5454 13.3279L12.9469 12.8926L12.348 13.3279L12.5767 12.6238L11.9778 12.1887H12.7179L12.9469 11.4846Z" fill="#EFEFEF"/>
</g>
<defs>
<clipPath id="clip0_6_382">
<rect width="30" height="30" fill="white" transform="translate(0 0.5)"/>
</clipPath>
</defs>
</svg>
